<svg width="34" height="34" viewBox="0 0 34 34" fill="none" xmlns="http://www.w3.org/2000/svg">
<rect width="34" height="34" rx="10" fill="#F6F9FB"/>
<g clip-path="url(#clip0_20_56)">
<path d="M12.654 10.328C12.595 10.2521 12.5205 10.1895 12.4354 10.1446C12.3504 10.0997 12.2567 10.0734 12.1607 10.0674C12.0647 10.0615 11.9685 10.076 11.8786 10.1101C11.7886 10.1441 11.707 10.1969 11.639 10.265L10.605 11.3C10.122 11.784 9.944 12.469 10.155 13.07C11.0317 15.5571 12.4562 17.8154 14.323 19.678C16.1856 21.5448 18.4439 22.9693 20.931 23.846C21.532 24.057 22.217 23.879 22.701 23.396L23.735 22.362C23.8031 22.294 23.8559 22.2124 23.8899 22.1224C23.924 22.0324 23.9385 21.9363 23.9326 21.8403C23.9266 21.7443 23.9003 21.6506 23.8554 21.5656C23.8105 21.4805 23.7479 21.406 23.672 21.347L21.365 19.553C21.2838 19.4902 21.1894 19.4466 21.089 19.4255C20.9885 19.4044 20.8846 19.4062 20.785 19.431L18.595 19.978C18.3027 20.0506 17.9965 20.0464 17.7062 19.966C17.416 19.8856 17.1513 19.7316 16.938 19.519L14.482 17.062C14.2692 16.8488 14.115 16.5842 14.0344 16.2939C13.9538 16.0036 13.9496 15.6974 14.022 15.405L14.57 13.215C14.5948 13.1154 14.5966 13.0115 14.5755 12.911C14.5544 12.8106 14.5108 12.7162 14.448 12.635L12.654 10.328ZM10.884 9.511C11.059 9.33595 11.2692 9.20013 11.5007 9.11256C11.7323 9.02499 11.9797 8.98767 12.2268 9.00309C12.4738 9.01851 12.7148 9.0863 12.9336 9.20197C13.1524 9.31765 13.3441 9.47855 13.496 9.674L15.29 11.98C15.619 12.403 15.735 12.954 15.605 13.474L15.058 15.664C15.0299 15.7774 15.0315 15.8962 15.0627 16.0088C15.0939 16.1215 15.1536 16.2241 15.236 16.307L17.693 18.764C17.7759 18.8466 17.8788 18.9064 17.9916 18.9375C18.1045 18.9687 18.2234 18.9703 18.337 18.942L20.526 18.395C20.7826 18.3312 21.0504 18.3264 21.3092 18.381C21.5679 18.4355 21.811 18.548 22.02 18.71L24.326 20.504C25.155 21.149 25.231 22.374 24.489 23.115L23.455 24.149C22.715 24.889 21.609 25.214 20.578 24.851C17.9387 23.9236 15.5425 22.4128 13.568 20.431C11.5864 18.4567 10.0756 16.061 9.148 13.422C8.786 12.392 9.111 11.285 9.851 10.545L10.884 9.511Z" fill="black"/>
</g>
<defs>
<clipPath id="clip0_20_56">
<rect width="16" height="16" fill="white" transform="translate(9 9)"/>
</clipPath>
</defs>
</svg>
